<svg xmlns="http://www.w3.org/2000/svg" viewBox="0 0 165.66 168.39">
    <path fill="#fff" d="M422.56,267l50.3-28L439,155.46,399.17,254a2.08,2.08,0,0,1-2.73.81c-1.94-.87-1.21-2.25-1.21-2.25L437,148.68l0.22-.22a1.16,1.16,0,0,1,.44-0.66,2,2,0,0,1,1.53-.66h0.44c0,0.22.22,0.22,0.44,0.22a2.27,2.27,0,0,1,1.31,1.75l66,163.36a1.85,1.85,0,0,1,0,1.53l-0.22.44a3.22,3.22,0,0,1-1.31,1.09h-0.44a1.64,1.64,0,0,1-1.09-.22L422.78,272l-77.63,43.3a1.64,1.64,0,0,1-1.09.22h-0.44a3.22,3.22,0,0,1-1.31-1.09l-0.22-.44a1.85,1.85,0,0,1,0-1.53l48.55-120.94a2.17,2.17,0,0,1,2.84-1.09,2.27,2.27,0,0,1,1.31,2.84l-19.46,48.55-1.55,3.87-25.13,62.61,69.54-38.71h0m9.18-.22,73.7,39.15-26.46-65.39Z" transform="translate(-341.92 -147.15)"/>
</svg>