<svg xmlns="http://www.w3.org/2000/svg" viewBox="0 0 157 157"><defs><style>.a{fill:#69c9cd;stroke:#69c9cd;stroke-width:3px;}.b{fill:#fff;}</style></defs><title>featured</title><circle class="a" cx="78.5" cy="78.5" r="77"/><path class="b" d="M122.55,51.05a4.14,4.14,0,0,0-3.65,2.23l-19,28.65L83.82,57.41a14.68,14.68,0,1,0-12.36-.17L55.59,81.42,37.25,53.75a4.18,4.18,0,0,0-3.87-2.69,4.13,4.13,0,0,0-4.13,4.13v67.44a4.17,4.17,0,0,0,4.13,4.13h88.74a4.89,4.89,0,0,0,4.55-4V55.18a4.12,4.12,0,0,0-4.11-4.13h0ZM77.77,37.59a6.42,6.42,0,0,1,0,12.84h0A6.51,6.51,0,0,1,71.16,44h0a6.64,6.64,0,0,1,6.61-6.42h0ZM37.52,68.76l13.21,20L37.52,108.87V68.76Zm3.25,49.91,18.06-27.5a1.5,1.5,0,0,0,.25-0.4L77.75,62.4l37,56.27h-74Zm77.65-8.54-13.67-20.8,13.67-20.69v41.49Z" transform="translate(1.5 1.5)"/></svg>
