<svg width="400" height="96" viewBox="0 0 400 96" fill="none" xmlns="http://www.w3.org/2000/svg">
    <path d="M363.969 95.1415C358.762 95.1415 353.909 94.3058 349.441 92.6024C345.038 90.8989 341.213 88.5204 337.935 85.4348C334.721 82.3492 332.214 78.7494 330.382 74.6031C328.614 70.4569 327.746 65.9249 327.746 61.0073C327.746 56.0896 328.614 51.5898 330.382 47.4115C332.214 43.2652 334.753 39.6332 338.031 36.5798C341.31 33.5263 345.135 31.1157 349.538 29.4122C353.941 27.7087 358.73 26.873 363.873 26.873C369.08 26.873 373.869 27.7087 378.208 29.4122C382.611 31.1157 386.404 33.4942 389.618 36.5798C392.897 39.6654 395.436 43.2652 397.268 47.4115C399.1 51.4934 400 56.0254 400 61.0073C400 65.9249 399.1 70.4569 397.268 74.6674C395.436 78.8137 392.897 82.4457 389.618 85.4991C386.404 88.5204 382.611 90.8667 378.208 92.5702C373.869 94.2737 369.144 95.1415 363.969 95.1415ZM363.873 82.1242C366.83 82.1242 369.53 81.61 371.973 80.6136C374.48 79.6172 376.697 78.1708 378.562 76.2745C380.458 74.3781 381.904 72.1604 382.901 69.5891C383.961 67.0178 384.508 64.1571 384.508 61.0073C384.508 57.8574 383.961 54.9968 382.901 52.4255C381.904 49.8542 380.458 47.6043 378.562 45.7401C376.73 43.8437 374.576 42.3974 372.069 41.401C369.562 40.4046 366.83 39.8904 363.873 39.8904C360.916 39.8904 358.184 40.4046 355.677 41.401C353.234 42.3974 351.049 43.8437 349.184 45.7401C347.288 47.6364 345.809 49.8542 344.749 52.4255C343.752 54.9968 343.238 57.8574 343.238 61.0073C343.238 64.0929 343.752 66.9535 344.749 69.5891C345.809 72.1604 347.256 74.4103 349.088 76.2745C350.984 78.1708 353.17 79.6172 355.677 80.6136C358.184 81.61 360.916 82.1242 363.873 82.1242Z"
          fill="black"/>
    <path d="M37.9929 59.9033V94.9375H53.7101V59.9997C48.5032 60.7711 43.1998 60.739 37.9929 59.9033Z" fill="black"/>
    <path d="M77.3002 22.3965C67.3042 52.3523 24.9096 52.3523 14.9136 22.3965L0 27.3784C6.36401 46.4062 21.5348 57.27 37.9912 59.9377C43.1981 60.7734 48.5015 60.8055 53.7084 60.0341C70.3255 57.495 85.7856 46.6311 92.2139 27.3784L77.3002 22.3965Z"
          fill="#3BAFE5"/>
    <path fill-rule="evenodd" clip-rule="evenodd"
          d="M177.099 28.7988V94.946H192.817V68.2364C200.916 75.5968 211.394 80.1609 222.29 81.0609V94.9138H238.007V28.7988H222.29V65.2794C208.277 63.6402 195.291 53.2906 192.817 38.0556V28.7988H177.099Z"
          fill="black"/>
    <path fill-rule="evenodd" clip-rule="evenodd"
          d="M88.0352 94.946L114.23 28.7988H119.47H129.948H135.187L151.386 69.6828C151.418 69.7792 151.482 69.8756 151.515 69.972L161.414 94.946H145.697L141.679 84.8214C130.912 88.7427 118.795 88.9677 107.77 84.8214L103.752 94.9138H88.0352V94.946ZM135.862 70.197L124.709 42.009L113.555 70.1328C120.819 72.8326 128.758 72.7041 135.862 70.197Z"
          fill="black"/>
    <path fill-rule="evenodd" clip-rule="evenodd"
          d="M253.756 94.946V28.7988H269.473V62.2581C285.48 61.0688 300.425 48.4051 300.233 29.0881L315.95 28.9274C316.11 45.9945 308.686 59.5582 297.725 68.1078L318.617 94.9781H298.979L283.905 75.5968C279.276 77.1717 274.423 78.0717 269.505 78.2003V94.9781H253.756V94.946Z"
          fill="black"/>
    <path fill-rule="evenodd" clip-rule="evenodd"
          d="M33.1055 18.9635C38.3446 18.9635 42.5872 14.7208 42.5872 9.48172C42.5872 4.24266 38.3446 0 33.1055 0C27.8665 0 23.6238 4.24266 23.6238 9.48172C23.6238 14.7208 27.8343 18.9635 33.1055 18.9635ZM58.6259 18.9635C63.8649 18.9635 68.1076 14.7208 68.1076 9.48172C68.1076 4.24266 63.8649 0 58.6259 0C53.3868 0 49.1441 4.24266 49.1441 9.48172C49.1441 14.7208 53.3868 18.9635 58.6259 18.9635Z"
          fill="black"/>
</svg>