<svg xmlns:xlink="http://www.w3.org/1999/xlink" xmlns="http://www.w3.org/2000/svg" width="64" height="64"
     viewBox="0 0 64 64" id="phone">
    <defs>
        <path id="a" d="M.06 64V.04H64V64z"></path>
    </defs>
    <g fill="none" fill-rule="evenodd">
        <mask id="b" fill="#fff">
            <use xlink:href="#a"></use>
        </mask>
        <path fill="#3BAFE5"
              d="M64 32c0 17.673-14.327 32-32 32C14.327 64 0 49.673 0 32 0 14.327 14.327 0 32 0c17.673 0 32 14.327 32 32"
              mask="url(#b)"></path>
        <path fill="#FFFFFE"
              d="M28.962 23.343c-.417-4.794-5.418-7.146-5.629-7.242a1.063 1.063 0 0 0-.635-.085c-5.774.958-6.642 4.318-6.677 4.458-.048.196-.04.399.021.589 6.887 21.366 21.199 25.327 25.903 26.629.363.101.661.181.889.256a1.087 1.087 0 0 0 .787-.046c.144-.066 3.544-1.667 4.375-6.891.037-.227 0-.463-.105-.668-.074-.144-1.852-3.528-6.784-4.724a1.066 1.066 0 0 0-.964.229c-1.556 1.329-3.705 2.745-4.632 2.891-6.217-3.039-9.689-8.872-9.82-9.978-.076-.622 1.349-2.806 2.988-4.582.207-.225.312-.53.283-.836"></path>
    </g>
</svg>