<svg xmlns="http://www.w3.org/2000/svg" width="70" height="13" viewBox="0 0 70 13">
  <path fill="#6ac9cd" d="M7,0L9.307,4.086,14,4.966l-3.266,3.4L11.326,13,7,11.019,2.674,13,3.267,8.371,0,4.966l4.692-.88L7,0M21,0l2.307,4.085L28,4.966l-3.266,3.4L25.326,13,21,11.019,16.674,13l0.593-4.629L14,4.966l4.692-.88L21,0M35,0l2.307,4.085L42,4.966l-3.266,3.4L39.326,13,35,11.019,30.674,13l0.593-4.629L28,4.966l4.692-.88L35,0M49,0l2.307,4.085L56,4.966l-3.266,3.4L53.326,13,49,11.019,44.674,13l0.593-4.629L42,4.966l4.692-.88L49,0M63,0l2.307,4.085L70,4.966l-3.266,3.4L67.326,13,63,11.019,58.674,13l0.593-4.629L56,4.966l4.692-.88L63,0"/>
</svg>
